# xmcd
#
# Track frame offsets:
# 150
# 12016
# 26825
# 42588
# 53040
# 69508
# 84787
# 99714
# 114204
# 126842
# 140025
# 159336
# 172241
# 200623
# 210953
# 236947
# 249550
# 264390
# 277152
# 292037
# 308249
#
# Disc length: 4295 seconds
#
#
# Revision: 0
# Processed by: cddbd v1.5.2PL0 Copyright (c) Steve Scherf et al.
# Submitted via: FreeRIP 2.944 
#
DISCID=3710c515
DTITLE=RENATO E GRACIANO - RENATO E GRACIANO AO VIVO
DYEAR=2007
DGENRE=SERTANEJA
TTITLE0=Renato e Graciano - Me namora
TTITLE1=Renato e Graciano - Magia
TTITLE2=Renato e Graciano - Cigana
TTITLE3=Renato e Graciano - Festa louca
TTITLE4=Renato e Graciano - Vem me dar um beijo
TTITLE5=Renato e Graciano - Parece castigo
TTITLE6=Renato e Graciano - Como um anjo
TTITLE7=Renato e Graciano - Hábito
TTITLE8=Renato e Graciano - Eu sou peão
TTITLE9=Renato e Graciano - Caso marcado
TTITLE10=Renato e Graciano - Evidências
TTITLE11=Renato e Graciano - Leilão
TTITLE12=Renato e Graciano - Pout Pourri Gino e Geno
TTITLE13=Renato e Graciano - Sempre seu homem
TTITLE14=Renato e Graciano - Modas de viola
TTITLE15=Renato e Graciano - Abre a janela
TTITLE16=Renato e Graciano - Mania de enganar
TTITLE17=Renato e Graciano - Galera coração
TTITLE18=Renato e Graciano - Dengo
TTITLE19=Renato e Graciano - Choram as rosas
TTITLE20=Renato e Graciano - Tadim tadim
EXTD=
EXTT0=
EXTT1=
EXTT2=
EXTT3=
EXTT4=
EXTT5=
EXTT6=
EXTT7=
EXTT8=
EXTT9=
EXTT10=
EXTT11=
EXTT12=
EXTT13=
EXTT14=
EXTT15=
EXTT16=
EXTT17=
EXTT18=
EXTT19=
EXTT20=
PLAYORDER=
